<?xml version="1.0" encoding="UTF-8"?>
<svg xmlns="http://www.w3.org/2000/svg" xmlns:xlink="http://www.w3.org/1999/xlink" width="595.275591pt" height="841.889764pt" viewBox="0 0 595.275591 841.889764" version="1.2">
<g id="surface3629">
<path style="fill-rule:nonzero;fill:rgb(49.411011%,65.097046%,87.841797%);fill-opacity:1;stroke-width:1;stroke-linecap:butt;stroke-linejoin:miter;stroke:rgb(0%,0%,0%);stroke-opacity:1;stroke-miterlimit:10;" d="M 521.996484 1328.999402 C 521.996484 1351.08677 504.092649 1369.001143 481.994743 1369.001143 C 459.907374 1369.001143 442.003539 1351.08677 442.003539 1328.999402 C 442.003539 1306.912033 459.907374 1288.99766 481.994743 1288.99766 C 504.092649 1288.99766 521.996484 1306.912033 521.996484 1328.999402 Z M 521.996484 1328.999402 " transform="matrix(0,-0.370687,0.370687,0,0.185343,773.653553)"/>
<path style="fill-rule:nonzero;fill:rgb(49.411011%,65.097046%,87.841797%);fill-opacity:1;stroke-width:1;stroke-linecap:butt;stroke-linejoin:miter;stroke:rgb(0%,0%,0%);stroke-opacity:1;stroke-miterlimit:10;" d="M 625.00413 1328.999402 C 625.00413 1351.08677 607.089757 1369.001143 585.002389 1369.001143 C 562.904483 1369.001143 545.000647 1351.08677 545.000647 1328.999402 C 545.000647 1306.912033 562.904483 1288.99766 585.002389 1288.99766 C 607.089757 1288.99766 625.00413 1306.912033 625.00413 1328.999402 Z M 625.00413 1328.999402 " transform="matrix(0,-0.370687,0.370687,0,0.185343,773.653553)"/>
<path style="fill-rule:nonzero;fill:rgb(49.411011%,65.097046%,87.841797%);fill-opacity:1;stroke-width:1;stroke-linecap:butt;stroke-linejoin:miter;stroke:rgb(0%,0%,0%);stroke-opacity:1;stroke-miterlimit:10;" d="M 727.000141 1328.999402 C 727.000141 1351.08677 709.096306 1369.001143 686.9984 1369.001143 C 664.911031 1369.001143 646.996658 1351.08677 646.996658 1328.999402 C 646.996658 1306.912033 664.911031 1288.99766 686.9984 1288.99766 C 709.096306 1288.99766 727.000141 1306.912033 727.000141 1328.999402 Z M 727.000141 1328.999402 " transform="matrix(0,-0.370687,0.370687,0,0.185343,773.653553)"/>
<path style="fill-rule:nonzero;fill:rgb(49.411011%,65.097046%,87.841797%);fill-opacity:1;stroke-width:1;stroke-linecap:butt;stroke-linejoin:miter;stroke:rgb(0%,0%,0%);stroke-opacity:1;stroke-miterlimit:10;" d="M 829.997249 1328.999402 C 829.997249 1351.08677 812.093414 1369.001143 789.995508 1369.001143 C 767.908139 1369.001143 750.004304 1351.08677 750.004304 1328.999402 C 750.004304 1306.912033 767.908139 1288.99766 789.995508 1288.99766 C 812.093414 1288.99766 829.997249 1306.912033 829.997249 1328.999402 Z M 829.997249 1328.999402 " transform="matrix(0,-0.370687,0.370687,0,0.185343,773.653553)"/>
<path style="fill-rule:nonzero;fill:rgb(49.411011%,65.097046%,87.841797%);fill-opacity:1;stroke-width:1;stroke-linecap:butt;stroke-linejoin:miter;stroke:rgb(0%,0%,0%);stroke-opacity:1;stroke-miterlimit:10;" d="M 932.003798 1328.999402 C 932.003798 1351.08677 914.089425 1369.001143 892.002057 1369.001143 C 869.90415 1369.001143 852.000315 1351.08677 852.000315 1328.999402 C 852.000315 1306.912033 869.90415 1288.99766 892.002057 1288.99766 C 914.089425 1288.99766 932.003798 1306.912033 932.003798 1328.999402 Z M 932.003798 1328.999402 " transform="matrix(0,-0.370687,0.370687,0,0.185343,773.653553)"/>
<path style="fill:none;stroke-width:1;stroke-linecap:butt;stroke-linejoin:miter;stroke:rgb(0%,0%,0%);stroke-opacity:1;stroke-miterlimit:10;" d="M 446.998488 1278.997225 L 926.998312 1278.997225 C 935.281075 1278.997225 942.004234 1285.720384 942.004234 1294.003147 L 942.004234 1363.995657 C 942.004234 1372.27842 935.281075 1379.001579 926.998312 1379.001579 L 446.998488 1379.001579 C 438.715725 1379.001579 432.003104 1372.27842 432.003104 1363.995657 L 432.003104 1294.003147 C 432.003104 1285.720384 438.715725 1278.997225 446.998488 1278.997225 Z M 446.998488 1278.997225 " transform="matrix(0,-0.370687,0.370687,0,0.185343,773.653553)"/>
<path style="fill-rule:nonzero;fill:rgb(39.99939%,100%,39.99939%);fill-opacity:1;stroke-width:1;stroke-linecap:butt;stroke-linejoin:miter;stroke:rgb(0%,0%,0%);stroke-opacity:1;stroke-miterlimit:10;" d="M 1071.999356 1328.999402 C 1071.999356 1351.08677 1054.095521 1369.001143 1031.997614 1369.001143 C 1009.910246 1369.001143 991.995873 1351.08677 991.995873 1328.999402 C 991.995873 1306.912033 1009.910246 1288.99766 1031.997614 1288.99766 C 1054.095521 1288.99766 1071.999356 1306.912033 1071.999356 1328.999402 Z M 1071.999356 1328.999402 " transform="matrix(0,-0.370687,0.370687,0,0.185343,773.653553)"/>
<path style="fill-rule:nonzero;fill:rgb(39.99939%,100%,39.99939%);fill-opacity:1;stroke-width:1;stroke-linecap:butt;stroke-linejoin:miter;stroke:rgb(0%,0%,0%);stroke-opacity:1;stroke-miterlimit:10;" d="M 1174.996464 1328.999402 C 1174.996464 1351.08677 1157.092629 1369.001143 1135.00526 1369.001143 C 1112.907354 1369.001143 1095.003519 1351.08677 1095.003519 1328.999402 C 1095.003519 1306.912033 1112.907354 1288.99766 1135.00526 1288.99766 C 1157.092629 1288.99766 1174.996464 1306.912033 1174.996464 1328.999402 Z M 1174.996464 1328.999402 " transform="matrix(0,-0.370687,0.370687,0,0.185343,773.653553)"/>
<path style="fill-rule:nonzero;fill:rgb(39.99939%,100%,39.99939%);fill-opacity:1;stroke-width:1;stroke-linecap:butt;stroke-linejoin:miter;stroke:rgb(0%,0%,0%);stroke-opacity:1;stroke-miterlimit:10;" d="M 1277.003013 1328.999402 C 1277.003013 1351.08677 1259.08864 1369.001143 1237.001271 1369.001143 C 1214.903365 1369.001143 1196.99953 1351.08677 1196.99953 1328.999402 C 1196.99953 1306.912033 1214.903365 1288.99766 1237.001271 1288.99766 C 1259.08864 1288.99766 1277.003013 1306.912033 1277.003013 1328.999402 Z M 1277.003013 1328.999402 " transform="matrix(0,-0.370687,0.370687,0,0.185343,773.653553)"/>
<path style="fill-rule:nonzero;fill:rgb(39.99939%,100%,39.99939%);fill-opacity:1;stroke-width:1;stroke-linecap:butt;stroke-linejoin:miter;stroke:rgb(0%,0%,0%);stroke-opacity:1;stroke-miterlimit:10;" d="M 1380.000121 1328.999402 C 1380.000121 1351.08677 1362.096286 1369.001143 1339.998379 1369.001143 C 1317.911011 1369.001143 1299.996638 1351.08677 1299.996638 1328.999402 C 1299.996638 1306.912033 1317.911011 1288.99766 1339.998379 1288.99766 C 1362.096286 1288.99766 1380.000121 1306.912033 1380.000121 1328.999402 Z M 1380.000121 1328.999402 " transform="matrix(0,-0.370687,0.370687,0,0.185343,773.653553)"/>
<path style="fill-rule:nonzero;fill:rgb(39.99939%,100%,39.99939%);fill-opacity:1;stroke-width:1;stroke-linecap:butt;stroke-linejoin:miter;stroke:rgb(0%,0%,0%);stroke-opacity:1;stroke-miterlimit:10;" d="M 1481.996132 1328.999402 C 1481.996132 1351.08677 1464.092296 1369.001143 1442.004928 1369.001143 C 1419.907022 1369.001143 1402.003186 1351.08677 1402.003186 1328.999402 C 1402.003186 1306.912033 1419.907022 1288.99766 1442.004928 1288.99766 C 1464.092296 1288.99766 1481.996132 1306.912033 1481.996132 1328.999402 Z M 1481.996132 1328.999402 " transform="matrix(0,-0.370687,0.370687,0,0.185343,773.653553)"/>
<path style="fill:none;stroke-width:1;stroke-linecap:butt;stroke-linejoin:miter;stroke:rgb(0%,0%,0%);stroke-opacity:1;stroke-miterlimit:10;" d="M 997.001359 1278.997225 L 1477.001183 1278.997225 C 1485.283946 1278.997225 1491.996567 1285.720384 1491.996567 1294.003147 L 1491.996567 1363.995657 C 1491.996567 1372.27842 1485.283946 1379.001579 1477.001183 1379.001579 L 997.001359 1379.001579 C 988.718596 1379.001579 981.995437 1372.27842 981.995437 1363.995657 L 981.995437 1294.003147 C 981.995437 1285.720384 988.718596 1278.997225 997.001359 1278.997225 Z M 997.001359 1278.997225 " transform="matrix(0,-0.370687,0.370687,0,0.185343,773.653553)"/>
<path style="fill-rule:nonzero;fill:rgb(19.999695%,19.999695%,19.999695%);fill-opacity:1;stroke-width:1;stroke-linecap:butt;stroke-linejoin:miter;stroke:rgb(0%,0%,0%);stroke-opacity:1;stroke-miterlimit:10;" d="M 817.00406 1088.99949 C 817.00406 1111.086858 799.089687 1129.001232 777.002318 1129.001232 C 754.904412 1129.001232 737.000577 1111.086858 737.000577 1088.99949 C 737.000577 1066.912122 754.904412 1048.997748 777.002318 1048.997748 C 799.089687 1048.997748 817.00406 1066.912122 817.00406 1088.99949 Z M 817.00406 1088.99949 " transform="matrix(0,-0.370687,0.370687,0,0.185343,773.653553)"/>
<path style="fill-rule:nonzero;fill:rgb(19.999695%,19.999695%,19.999695%);fill-opacity:1;stroke-width:1;stroke-linecap:butt;stroke-linejoin:miter;stroke:rgb(0%,0%,0%);stroke-opacity:1;stroke-miterlimit:10;" d="M 920.001168 1088.99949 C 920.001168 1111.086858 902.086795 1129.001232 879.999426 1129.001232 C 857.912058 1129.001232 839.997685 1111.086858 839.997685 1088.99949 C 839.997685 1066.912122 857.912058 1048.997748 879.999426 1048.997748 C 902.086795 1048.997748 920.001168 1066.912122 920.001168 1088.99949 Z M 920.001168 1088.99949 " transform="matrix(0,-0.370687,0.370687,0,0.185343,773.653553)"/>
<path style="fill-rule:nonzero;fill:rgb(19.999695%,19.999695%,19.999695%);fill-opacity:1;stroke-width:1;stroke-linecap:butt;stroke-linejoin:miter;stroke:rgb(0%,0%,0%);stroke-opacity:1;stroke-miterlimit:10;" d="M 1021.997179 1088.99949 C 1021.997179 1111.086858 1004.093344 1129.001232 981.995437 1129.001232 C 959.908069 1129.001232 942.004234 1111.086858 942.004234 1088.99949 C 942.004234 1066.912122 959.908069 1048.997748 981.995437 1048.997748 C 1004.093344 1048.997748 1021.997179 1066.912122 1021.997179 1088.99949 Z M 1021.997179 1088.99949 " transform="matrix(0,-0.370687,0.370687,0,0.185343,773.653553)"/>
<path style="fill-rule:nonzero;fill:rgb(19.999695%,19.999695%,19.999695%);fill-opacity:1;stroke-width:1;stroke-linecap:butt;stroke-linejoin:miter;stroke:rgb(0%,0%,0%);stroke-opacity:1;stroke-miterlimit:10;" d="M 1125.004825 1088.99949 C 1125.004825 1111.086858 1107.090452 1129.001232 1085.003083 1129.001232 C 1062.905177 1129.001232 1045.001342 1111.086858 1045.001342 1088.99949 C 1045.001342 1066.912122 1062.905177 1048.997748 1085.003083 1048.997748 C 1107.090452 1048.997748 1125.004825 1066.912122 1125.004825 1088.99949 Z M 1125.004825 1088.99949 " transform="matrix(0,-0.370687,0.370687,0,0.185343,773.653553)"/>
<path style="fill-rule:nonzero;fill:rgb(19.999695%,19.999695%,19.999695%);fill-opacity:1;stroke-width:1;stroke-linecap:butt;stroke-linejoin:miter;stroke:rgb(0%,0%,0%);stroke-opacity:1;stroke-miterlimit:10;" d="M 1227.000836 1088.99949 C 1227.000836 1111.086858 1209.086463 1129.001232 1186.999094 1129.001232 C 1164.911726 1129.001232 1146.997353 1111.086858 1146.997353 1088.99949 C 1146.997353 1066.912122 1164.911726 1048.997748 1186.999094 1048.997748 C 1209.086463 1048.997748 1227.000836 1066.912122 1227.000836 1088.99949 Z M 1227.000836 1088.99949 " transform="matrix(0,-0.370687,0.370687,0,0.185343,773.653553)"/>
<path style="fill:none;stroke-width:1;stroke-linecap:butt;stroke-linejoin:miter;stroke:rgb(0%,0%,0%);stroke-opacity:1;stroke-miterlimit:10;" d="M 741.995525 1038.997313 L 1221.995349 1038.997313 C 1230.278112 1038.997313 1237.001271 1045.720472 1237.001271 1054.003235 L 1237.001271 1123.995745 C 1237.001271 1132.278508 1230.278112 1139.001667 1221.995349 1139.001667 L 741.995525 1139.001667 C 733.7233 1139.001667 727.000141 1132.278508 727.000141 1123.995745 L 727.000141 1054.003235 C 727.000141 1045.720472 733.7233 1038.997313 741.995525 1038.997313 Z M 741.995525 1038.997313 " transform="matrix(0,-0.370687,0.370687,0,0.185343,773.653553)"/>
<path style="fill-rule:nonzero;fill:rgb(19.999695%,19.999695%,19.999695%);fill-opacity:1;stroke-width:1;stroke-linecap:butt;stroke-linejoin:miter;stroke:rgb(0%,0%,0%);stroke-opacity:1;stroke-miterlimit:10;" d="M 817.00406 867.999352 C 817.00406 890.08672 799.089687 908.001093 777.002318 908.001093 C 754.904412 908.001093 737.000577 890.08672 737.000577 867.999352 C 737.000577 845.911983 754.904412 827.99761 777.002318 827.99761 C 799.089687 827.99761 817.00406 845.911983 817.00406 867.999352 Z M 817.00406 867.999352 " transform="matrix(0,-0.370687,0.370687,0,0.185343,773.653553)"/>
<path style="fill-rule:nonzero;fill:rgb(19.999695%,19.999695%,19.999695%);fill-opacity:1;stroke-width:1;stroke-linecap:butt;stroke-linejoin:miter;stroke:rgb(0%,0%,0%);stroke-opacity:1;stroke-miterlimit:10;" d="M 920.001168 867.999352 C 920.001168 890.08672 902.086795 908.001093 879.999426 908.001093 C 857.912058 908.001093 839.997685 890.08672 839.997685 867.999352 C 839.997685 845.911983 857.912058 827.99761 879.999426 827.99761 C 902.086795 827.99761 920.001168 845.911983 920.001168 867.999352 Z M 920.001168 867.999352 " transform="matrix(0,-0.370687,0.370687,0,0.185343,773.653553)"/>
<path style="fill-rule:nonzero;fill:rgb(19.999695%,19.999695%,19.999695%);fill-opacity:1;stroke-width:1;stroke-linecap:butt;stroke-linejoin:miter;stroke:rgb(0%,0%,0%);stroke-opacity:1;stroke-miterlimit:10;" d="M 1021.997179 867.999352 C 1021.997179 890.08672 1004.093344 908.001093 981.995437 908.001093 C 959.908069 908.001093 942.004234 890.08672 942.004234 867.999352 C 942.004234 845.911983 959.908069 827.99761 981.995437 827.99761 C 1004.093344 827.99761 1021.997179 845.911983 1021.997179 867.999352 Z M 1021.997179 867.999352 " transform="matrix(0,-0.370687,0.370687,0,0.185343,773.653553)"/>
<path style="fill-rule:nonzero;fill:rgb(19.999695%,19.999695%,19.999695%);fill-opacity:1;stroke-width:1;stroke-linecap:butt;stroke-linejoin:miter;stroke:rgb(0%,0%,0%);stroke-opacity:1;stroke-miterlimit:10;" d="M 1125.004825 867.999352 C 1125.004825 890.08672 1107.090452 908.001093 1085.003083 908.001093 C 1062.905177 908.001093 1045.001342 890.08672 1045.001342 867.999352 C 1045.001342 845.911983 1062.905177 827.99761 1085.003083 827.99761 C 1107.090452 827.99761 1125.004825 845.911983 1125.004825 867.999352 Z M 1125.004825 867.999352 " transform="matrix(0,-0.370687,0.370687,0,0.185343,773.653553)"/>
<path style="fill-rule:nonzero;fill:rgb(19.999695%,19.999695%,19.999695%);fill-opacity:1;stroke-width:1;stroke-linecap:butt;stroke-linejoin:miter;stroke:rgb(0%,0%,0%);stroke-opacity:1;stroke-miterlimit:10;" d="M 1227.000836 867.999352 C 1227.000836 890.08672 1209.086463 908.001093 1186.999094 908.001093 C 1164.911726 908.001093 1146.997353 890.08672 1146.997353 867.999352 C 1146.997353 845.911983 1164.911726 827.99761 1186.999094 827.99761 C 1209.086463 827.99761 1227.000836 845.911983 1227.000836 867.999352 Z M 1227.000836 867.999352 " transform="matrix(0,-0.370687,0.370687,0,0.185343,773.653553)"/>
<path style="fill:none;stroke-width:1;stroke-linecap:butt;stroke-linejoin:miter;stroke:rgb(0%,0%,0%);stroke-opacity:1;stroke-miterlimit:10;" d="M 741.995525 817.997175 L 1221.995349 817.997175 C 1230.278112 817.997175 1237.001271 824.720334 1237.001271 833.003097 L 1237.001271 902.995607 C 1237.001271 911.27837 1230.278112 918.001529 1221.995349 918.001529 L 741.995525 918.001529 C 733.7233 918.001529 727.000141 911.27837 727.000141 902.995607 L 727.000141 833.003097 C 727.000141 824.720334 733.7233 817.997175 741.995525 817.997175 Z M 741.995525 817.997175 " transform="matrix(0,-0.370687,0.370687,0,0.185343,773.653553)"/>
<path style="fill-rule:nonzero;fill:rgb(39.99939%,100%,39.99939%);fill-opacity:1;stroke-width:1;stroke-linecap:butt;stroke-linejoin:miter;stroke:rgb(0%,0%,0%);stroke-opacity:1;stroke-miterlimit:10;" d="M 1184.9969 637.999875 C 1184.9969 660.087244 1167.093064 678.001617 1144.995158 678.001617 C 1122.907789 678.001617 1105.003954 660.087244 1105.003954 637.999875 C 1105.003954 615.912507 1122.907789 597.998134 1144.995158 597.998134 C 1167.093064 597.998134 1184.9969 615.912507 1184.9969 637.999875 Z M 1184.9969 637.999875 " transform="matrix(0,-0.370687,0.370687,0,0.185343,773.653553)"/>
<path style="fill-rule:nonzero;fill:rgb(39.99939%,100%,39.99939%);fill-opacity:1;stroke-width:1;stroke-linecap:butt;stroke-linejoin:miter;stroke:rgb(0%,0%,0%);stroke-opacity:1;stroke-miterlimit:10;" d="M 1288.004546 637.999875 C 1288.004546 660.087244 1270.090172 678.001617 1248.002804 678.001617 C 1225.904898 678.001617 1208.001062 660.087244 1208.001062 637.999875 C 1208.001062 615.912507 1225.904898 597.998134 1248.002804 597.998134 C 1270.090172 597.998134 1288.004546 615.912507 1288.004546 637.999875 Z M 1288.004546 637.999875 " transform="matrix(0,-0.370687,0.370687,0,0.185343,773.653553)"/>
<path style="fill-rule:nonzero;fill:rgb(39.99939%,100%,39.99939%);fill-opacity:1;stroke-width:1;stroke-linecap:butt;stroke-linejoin:miter;stroke:rgb(0%,0%,0%);stroke-opacity:1;stroke-miterlimit:10;" d="M 1390.000556 637.999875 C 1390.000556 660.087244 1372.086183 678.001617 1349.998815 678.001617 C 1327.911446 678.001617 1309.997073 660.087244 1309.997073 637.999875 C 1309.997073 615.912507 1327.911446 597.998134 1349.998815 597.998134 C 1372.086183 597.998134 1390.000556 615.912507 1390.000556 637.999875 Z M 1390.000556 637.999875 " transform="matrix(0,-0.370687,0.370687,0,0.185343,773.653553)"/>
<path style="fill-rule:nonzero;fill:rgb(39.99939%,100%,39.99939%);fill-opacity:1;stroke-width:1;stroke-linecap:butt;stroke-linejoin:miter;stroke:rgb(0%,0%,0%);stroke-opacity:1;stroke-miterlimit:10;" d="M 1492.997665 637.999875 C 1492.997665 660.087244 1475.093829 678.001617 1452.995923 678.001617 C 1430.908555 678.001617 1413.004719 660.087244 1413.004719 637.999875 C 1413.004719 615.912507 1430.908555 597.998134 1452.995923 597.998134 C 1475.093829 597.998134 1492.997665 615.912507 1492.997665 637.999875 Z M 1492.997665 637.999875 " transform="matrix(0,-0.370687,0.370687,0,0.185343,773.653553)"/>
<path style="fill-rule:nonzero;fill:rgb(39.99939%,100%,39.99939%);fill-opacity:1;stroke-width:1;stroke-linecap:butt;stroke-linejoin:miter;stroke:rgb(0%,0%,0%);stroke-opacity:1;stroke-miterlimit:10;" d="M 1595.004213 637.999875 C 1595.004213 660.087244 1577.08984 678.001617 1555.002472 678.001617 C 1532.904565 678.001617 1515.00073 660.087244 1515.00073 637.999875 C 1515.00073 615.912507 1532.904565 597.998134 1555.002472 597.998134 C 1577.08984 597.998134 1595.004213 615.912507 1595.004213 637.999875 Z M 1595.004213 637.999875 " transform="matrix(0,-0.370687,0.370687,0,0.185343,773.653553)"/>
<path style="fill:none;stroke-width:1;stroke-linecap:butt;stroke-linejoin:miter;stroke:rgb(0%,0%,0%);stroke-opacity:1;stroke-miterlimit:10;" d="M 1109.998903 587.997698 L 1589.998727 587.997698 C 1598.28149 587.997698 1605.004649 594.720857 1605.004649 603.00362 L 1605.004649 672.99613 C 1605.004649 681.278893 1598.28149 688.002052 1589.998727 688.002052 L 1109.998903 688.002052 C 1101.71614 688.002052 1095.003519 681.278893 1095.003519 672.99613 L 1095.003519 603.00362 C 1095.003519 594.720857 1101.71614 587.997698 1109.998903 587.997698 Z M 1109.998903 587.997698 " transform="matrix(0,-0.370687,0.370687,0,0.185343,773.653553)"/>
<path style="fill-rule:nonzero;fill:rgb(19.999695%,19.999695%,19.999695%);fill-opacity:1;stroke-width:1;stroke-linecap:butt;stroke-linejoin:miter;stroke:rgb(0%,0%,0%);stroke-opacity:1;stroke-miterlimit:10;" d="M 817.00406 445.999946 C 817.00406 468.087314 799.089687 486.001687 777.002318 486.001687 C 754.904412 486.001687 737.000577 468.087314 737.000577 445.999946 C 737.000577 423.912577 754.904412 405.998204 777.002318 405.998204 C 799.089687 405.998204 817.00406 423.912577 817.00406 445.999946 Z M 817.00406 445.999946 " transform="matrix(0,-0.370687,0.370687,0,0.185343,773.653553)"/>
<path style="fill-rule:nonzero;fill:rgb(19.999695%,19.999695%,19.999695%);fill-opacity:1;stroke-width:1;stroke-linecap:butt;stroke-linejoin:miter;stroke:rgb(0%,0%,0%);stroke-opacity:1;stroke-miterlimit:10;" d="M 920.001168 445.999946 C 920.001168 468.087314 902.086795 486.001687 879.999426 486.001687 C 857.912058 486.001687 839.997685 468.087314 839.997685 445.999946 C 839.997685 423.912577 857.912058 405.998204 879.999426 405.998204 C 902.086795 405.998204 920.001168 423.912577 920.001168 445.999946 Z M 920.001168 445.999946 " transform="matrix(0,-0.370687,0.370687,0,0.185343,773.653553)"/>
<path style="fill-rule:nonzero;fill:rgb(19.999695%,19.999695%,19.999695%);fill-opacity:1;stroke-width:1;stroke-linecap:butt;stroke-linejoin:miter;stroke:rgb(0%,0%,0%);stroke-opacity:1;stroke-miterlimit:10;" d="M 1021.997179 445.999946 C 1021.997179 468.087314 1004.093344 486.001687 981.995437 486.001687 C 959.908069 486.001687 942.004234 468.087314 942.004234 445.999946 C 942.004234 423.912577 959.908069 405.998204 981.995437 405.998204 C 1004.093344 405.998204 1021.997179 423.912577 1021.997179 445.999946 Z M 1021.997179 445.999946 " transform="matrix(0,-0.370687,0.370687,0,0.185343,773.653553)"/>
<path style="fill-rule:nonzero;fill:rgb(19.999695%,19.999695%,19.999695%);fill-opacity:1;stroke-width:1;stroke-linecap:butt;stroke-linejoin:miter;stroke:rgb(0%,0%,0%);stroke-opacity:1;stroke-miterlimit:10;" d="M 1125.004825 445.999946 C 1125.004825 468.087314 1107.090452 486.001687 1085.003083 486.001687 C 1062.905177 486.001687 1045.001342 468.087314 1045.001342 445.999946 C 1045.001342 423.912577 1062.905177 405.998204 1085.003083 405.998204 C 1107.090452 405.998204 1125.004825 423.912577 1125.004825 445.999946 Z M 1125.004825 445.999946 " transform="matrix(0,-0.370687,0.370687,0,0.185343,773.653553)"/>
<path style="fill-rule:nonzero;fill:rgb(19.999695%,19.999695%,19.999695%);fill-opacity:1;stroke-width:1;stroke-linecap:butt;stroke-linejoin:miter;stroke:rgb(0%,0%,0%);stroke-opacity:1;stroke-miterlimit:10;" d="M 1227.000836 445.999946 C 1227.000836 468.087314 1209.086463 486.001687 1186.999094 486.001687 C 1164.911726 486.001687 1146.997353 468.087314 1146.997353 445.999946 C 1146.997353 423.912577 1164.911726 405.998204 1186.999094 405.998204 C 1209.086463 405.998204 1227.000836 423.912577 1227.000836 445.999946 Z M 1227.000836 445.999946 " transform="matrix(0,-0.370687,0.370687,0,0.185343,773.653553)"/>
<path style="fill:none;stroke-width:1;stroke-linecap:butt;stroke-linejoin:miter;stroke:rgb(0%,0%,0%);stroke-opacity:1;stroke-miterlimit:10;" d="M 741.995525 395.997769 L 1221.995349 395.997769 C 1230.278112 395.997769 1237.001271 402.720928 1237.001271 411.003691 L 1237.001271 480.996201 C 1237.001271 489.278964 1230.278112 496.002123 1221.995349 496.002123 L 741.995525 496.002123 C 733.7233 496.002123 727.000141 489.278964 727.000141 480.996201 L 727.000141 411.003691 C 727.000141 402.720928 733.7233 395.997769 741.995525 395.997769 Z M 741.995525 395.997769 " transform="matrix(0,-0.370687,0.370687,0,0.185343,773.653553)"/>
<path style="fill-rule:nonzero;fill:rgb(19.999695%,19.999695%,19.999695%);fill-opacity:1;stroke-width:1;stroke-linecap:butt;stroke-linejoin:miter;stroke:rgb(0%,0%,0%);stroke-opacity:1;stroke-miterlimit:10;" d="M 1021.997179 268.004841 C 1021.997179 290.092209 1004.093344 307.996045 981.995437 307.996045 C 959.908069 307.996045 942.004234 290.092209 942.004234 268.004841 C 942.004234 245.906935 959.908069 228.003099 981.995437 228.003099 C 1004.093344 228.003099 1021.997179 245.906935 1021.997179 268.004841 Z M 1021.997179 268.004841 " transform="matrix(0,-0.370687,0.370687,0,0.185343,773.653553)"/>
<path style="fill:none;stroke-width:1;stroke-linecap:butt;stroke-linejoin:miter;stroke:rgb(0%,0%,0%);stroke-opacity:1;stroke-miterlimit:10;" d="M 946.999182 218.002664 L 1017.00223 218.002664 C 1025.284993 218.002664 1031.997614 224.715285 1031.997614 232.998048 L 1031.997614 303.001096 C 1031.997614 311.283859 1025.284993 317.99648 1017.00223 317.99648 L 946.999182 317.99648 C 938.716419 317.99648 932.003798 311.283859 932.003798 303.001096 L 932.003798 232.998048 C 932.003798 224.715285 938.716419 218.002664 946.999182 218.002664 Z M 946.999182 218.002664 " transform="matrix(0,-0.370687,0.370687,0,0.185343,773.653553)"/>
<path style="fill-rule:nonzero;fill:rgb(49.411011%,65.097046%,87.841797%);fill-opacity:1;stroke-width:1;stroke-linecap:butt;stroke-linejoin:miter;stroke:rgb(0%,0%,0%);stroke-opacity:1;stroke-miterlimit:10;" d="M 380.999829 637.999875 C 380.999829 660.087244 363.095994 678.001617 340.998088 678.001617 C 318.910719 678.001617 300.996346 660.087244 300.996346 637.999875 C 300.996346 615.912507 318.910719 597.998134 340.998088 597.998134 C 363.095994 597.998134 380.999829 615.912507 380.999829 637.999875 Z M 380.999829 637.999875 " transform="matrix(0,-0.370687,0.370687,0,0.185343,773.653553)"/>
<path style="fill-rule:nonzero;fill:rgb(49.411011%,65.097046%,87.841797%);fill-opacity:1;stroke-width:1;stroke-linecap:butt;stroke-linejoin:miter;stroke:rgb(0%,0%,0%);stroke-opacity:1;stroke-miterlimit:10;" d="M 483.996937 637.999875 C 483.996937 660.087244 466.093102 678.001617 443.995196 678.001617 C 421.907827 678.001617 404.003992 660.087244 404.003992 637.999875 C 404.003992 615.912507 421.907827 597.998134 443.995196 597.998134 C 466.093102 597.998134 483.996937 615.912507 483.996937 637.999875 Z M 483.996937 637.999875 " transform="matrix(0,-0.370687,0.370687,0,0.185343,773.653553)"/>
<path style="fill-rule:nonzero;fill:rgb(49.411011%,65.097046%,87.841797%);fill-opacity:1;stroke-width:1;stroke-linecap:butt;stroke-linejoin:miter;stroke:rgb(0%,0%,0%);stroke-opacity:1;stroke-miterlimit:10;" d="M 586.003486 637.999875 C 586.003486 660.087244 568.089113 678.001617 546.001745 678.001617 C 523.903838 678.001617 506.000003 660.087244 506.000003 637.999875 C 506.000003 615.912507 523.903838 597.998134 546.001745 597.998134 C 568.089113 597.998134 586.003486 615.912507 586.003486 637.999875 Z M 586.003486 637.999875 " transform="matrix(0,-0.370687,0.370687,0,0.185343,773.653553)"/>
<path style="fill-rule:nonzero;fill:rgb(49.411011%,65.097046%,87.841797%);fill-opacity:1;stroke-width:1;stroke-linecap:butt;stroke-linejoin:miter;stroke:rgb(0%,0%,0%);stroke-opacity:1;stroke-miterlimit:10;" d="M 689.000594 637.999875 C 689.000594 660.087244 671.086221 678.001617 648.998853 678.001617 C 626.911484 678.001617 608.997111 660.087244 608.997111 637.999875 C 608.997111 615.912507 626.911484 597.998134 648.998853 597.998134 C 671.086221 597.998134 689.000594 615.912507 689.000594 637.999875 Z M 689.000594 637.999875 " transform="matrix(0,-0.370687,0.370687,0,0.185343,773.653553)"/>
<path style="fill-rule:nonzero;fill:rgb(49.411011%,65.097046%,87.841797%);fill-opacity:1;stroke-width:1;stroke-linecap:butt;stroke-linejoin:miter;stroke:rgb(0%,0%,0%);stroke-opacity:1;stroke-miterlimit:10;" d="M 790.996605 637.999875 C 790.996605 660.087244 773.09277 678.001617 750.994864 678.001617 C 728.907495 678.001617 711.00366 660.087244 711.00366 637.999875 C 711.00366 615.912507 728.907495 597.998134 750.994864 597.998134 C 773.09277 597.998134 790.996605 615.912507 790.996605 637.999875 Z M 790.996605 637.999875 " transform="matrix(0,-0.370687,0.370687,0,0.185343,773.653553)"/>
<path style="fill:none;stroke-width:1;stroke-linecap:butt;stroke-linejoin:miter;stroke:rgb(0%,0%,0%);stroke-opacity:1;stroke-miterlimit:10;" d="M 306.001833 587.997698 L 786.001656 587.997698 C 794.28442 587.997698 800.997041 594.720857 800.997041 603.00362 L 800.997041 672.99613 C 800.997041 681.278893 794.28442 688.002052 786.001656 688.002052 L 306.001833 688.002052 C 297.71907 688.002052 290.995911 681.278893 290.995911 672.99613 L 290.995911 603.00362 C 290.995911 594.720857 297.71907 587.997698 306.001833 587.997698 Z M 306.001833 587.997698 " transform="matrix(0,-0.370687,0.370687,0,0.185343,773.653553)"/>
<path style="fill:none;stroke-width:1;stroke-linecap:butt;stroke-linejoin:miter;stroke:rgb(0%,0%,0%);stroke-opacity:1;stroke-miterlimit:10;" d="M 280.004916 198.001793 L 1594.003116 198.001793 C 1637.060839 198.001793 1672.004404 232.945359 1672.004404 276.003082 L 1672.004404 640.00207 C 1672.004404 683.059793 1637.060839 718.003358 1594.003116 718.003358 L 280.004916 718.003358 C 236.947193 718.003358 202.003627 683.059793 202.003627 640.00207 L 202.003627 276.003082 C 202.003627 232.945359 236.947193 198.001793 280.004916 198.001793 Z M 280.004916 198.001793 " transform="matrix(0,-0.370687,0.370687,0,0.185343,773.653553)"/>
<path style="fill:none;stroke-width:1;stroke-linecap:butt;stroke-linejoin:miter;stroke:rgb(0%,0%,0%);stroke-opacity:1;stroke-miterlimit:10;" d="M 433.99476 767.994998 L 1480.004475 767.994998 C 1536.308296 767.994998 1582.000486 813.697725 1582.000486 870.001546 L 1582.000486 1345.996981 C 1582.000486 1402.300802 1536.308296 1448.003529 1480.004475 1448.003529 L 433.99476 1448.003529 C 377.690939 1448.003529 331.99875 1402.300802 331.99875 1345.996981 L 331.99875 870.001546 C 331.99875 813.697725 377.690939 767.994998 433.99476 767.994998 Z M 433.99476 767.994998 " transform="matrix(0,-0.370687,0.370687,0,0.185343,773.653553)"/>
<path style="fill:none;stroke-width:1;stroke-linecap:butt;stroke-linejoin:miter;stroke:rgb(0%,0%,0%);stroke-opacity:1;stroke-miterlimit:10;" d="M 686.9984 1278.997225 L 977.000489 1142.004959 " transform="matrix(0,-0.370687,0.370687,0,0.185343,773.653553)"/>
<path style="fill-rule:nonzero;fill:rgb(0%,0%,0%);fill-opacity:1;stroke-width:1;stroke-linecap:butt;stroke-linejoin:miter;stroke:rgb(0%,0%,0%);stroke-opacity:1;stroke-miterlimit:10;" d="M 981.004878 1140.002764 L 975.999391 1145.99881 L 977.000489 1142.004959 L 972.996099 1140.002764 Z M 981.004878 1140.002764 " transform="matrix(0,-0.370687,0.370687,0,0.185343,773.653553)"/>
<path style="fill:none;stroke-width:1;stroke-linecap:butt;stroke-linejoin:miter;stroke:rgb(0%,0%,0%);stroke-opacity:1;stroke-miterlimit:10;" d="M 1237.001271 1278.997225 L 988.002021 1141.003862 " transform="matrix(0,-0.370687,0.370687,0,0.185343,773.653553)"/>
<path style="fill-rule:nonzero;fill:rgb(0%,0%,0%);fill-opacity:1;stroke-width:1;stroke-linecap:butt;stroke-linejoin:miter;stroke:rgb(0%,0%,0%);stroke-opacity:1;stroke-miterlimit:10;" d="M 982.996535 1139.001667 L 990.994775 1139.001667 L 988.002021 1141.003862 L 988.002021 1144.997713 Z M 982.996535 1139.001667 " transform="matrix(0,-0.370687,0.370687,0,0.185343,773.653553)"/>
<path style="fill:none;stroke-width:1;stroke-linecap:butt;stroke-linejoin:miter;stroke:rgb(0%,0%,0%);stroke-opacity:1;stroke-miterlimit:10;" d="M 981.995437 1038.997313 L 981.995437 924.998672 " transform="matrix(0,-0.370687,0.370687,0,0.185343,773.653553)"/>
<path style="fill-rule:nonzero;fill:rgb(0%,0%,0%);fill-opacity:1;stroke-width:1;stroke-linecap:butt;stroke-linejoin:miter;stroke:rgb(0%,0%,0%);stroke-opacity:1;stroke-miterlimit:10;" d="M 981.995437 919.002626 L 985.999827 925.999769 L 981.995437 924.998672 L 979.002683 925.999769 Z M 981.995437 919.002626 " transform="matrix(0,-0.370687,0.370687,0,0.185343,773.653553)"/>
<path style="fill:none;stroke-width:1;stroke-linecap:butt;stroke-linejoin:miter;stroke:rgb(0%,0%,0%);stroke-opacity:1;stroke-dasharray:1,4;stroke-miterlimit:10;" d="M 546.001745 587.997698 L 981.995437 496.002123 " transform="matrix(0,-0.370687,0.370687,0,0.185343,773.653553)"/>
<path style="fill:none;stroke-width:1;stroke-linecap:butt;stroke-linejoin:miter;stroke:rgb(0%,0%,0%);stroke-opacity:1;stroke-dasharray:1,4;stroke-miterlimit:10;" d="M 987.000924 817.997175 L 987.000924 498.004317 " transform="matrix(0,-0.370687,0.370687,0,0.185343,773.653553)"/>
<path style="fill:none;stroke-width:1;stroke-linecap:butt;stroke-linejoin:miter;stroke:rgb(0%,0%,0%);stroke-opacity:1;stroke-miterlimit:10;" d="M 1349.998815 587.997698 L 988.002021 499.995974 " transform="matrix(0,-0.370687,0.370687,0,0.185343,773.653553)"/>
<path style="fill-rule:nonzero;fill:rgb(0%,0%,0%);fill-opacity:1;stroke-width:1;stroke-linecap:butt;stroke-linejoin:miter;stroke:rgb(0%,0%,0%);stroke-opacity:1;stroke-miterlimit:10;" d="M 982.996535 498.994877 L 990.994775 497.00322 L 988.002021 499.995974 L 989.003119 504.000364 Z M 982.996535 498.994877 " transform="matrix(0,-0.370687,0.370687,0,0.185343,773.653553)"/>
<path style="fill:none;stroke-width:1;stroke-linecap:butt;stroke-linejoin:miter;stroke:rgb(0%,0%,0%);stroke-opacity:1;stroke-miterlimit:10;" d="M 981.995437 395.997769 L 981.995437 325.004161 " transform="matrix(0,-0.370687,0.370687,0,0.185343,773.653553)"/>
<path style="fill-rule:nonzero;fill:rgb(0%,0%,0%);fill-opacity:1;stroke-width:1;stroke-linecap:butt;stroke-linejoin:miter;stroke:rgb(0%,0%,0%);stroke-opacity:1;stroke-miterlimit:10;" d="M 981.995437 318.997577 L 985.999827 326.005259 L 981.995437 325.004161 L 979.002683 326.005259 Z M 981.995437 318.997577 " transform="matrix(0,-0.370687,0.370687,0,0.185343,773.653553)"/>
<path style=" stroke:none;fill-rule:evenodd;fill:rgb(0%,0%,0%);fill-opacity:1;" d="M 97.308594 681.109375 C 97.308594 680.671875 97.265625 680.308594 97.171875 680.027344 C 97.003906 679.523438 96.675781 679.109375 96.195312 678.789062 C 95.808594 678.535156 95.3125 678.347656 94.710938 678.234375 C 94.347656 678.171875 94.015625 678.136719 93.707031 678.136719 C 92.519531 678.136719 91.597656 678.375 90.945312 678.84375 C 90.289062 679.316406 89.960938 680.074219 89.960938 681.121094 L 89.960938 683.421875 L 97.308594 683.421875 Z M 88.84375 684.726562 L 88.84375 680.847656 C 88.84375 679.53125 89.3125 678.511719 90.246094 677.785156 C 91.089844 677.140625 92.167969 676.816406 93.484375 676.816406 C 94.5 676.816406 95.421875 677.007812 96.242188 677.386719 C 97.691406 678.0625 98.417969 679.21875 98.417969 680.863281 L 98.417969 684.726562 Z M 91.472656 675.304688 L 91.472656 674.109375 L 98.417969 674.109375 L 98.417969 675.304688 Z M 88.84375 675.304688 L 88.84375 674.109375 L 90.175781 674.109375 L 90.175781 675.304688 Z M 96.226562 671.640625 C 96.617188 671.605469 96.917969 671.507812 97.128906 671.347656 C 97.503906 671.050781 97.695312 670.539062 97.695312 669.808594 C 97.695312 669.375 97.601562 668.992188 97.410156 668.664062 C 97.222656 668.332031 96.929688 668.167969 96.535156 668.167969 C 96.234375 668.167969 96.007812 668.300781 95.851562 668.566406 C 95.753906 668.734375 95.644531 669.070312 95.519531 669.566406 L 95.285156 670.5 C 95.136719 671.09375 94.96875 671.535156 94.789062 671.816406 C 94.472656 672.320312 94.03125 672.570312 93.472656 672.570312 C 92.8125 672.570312 92.277344 672.335938 91.867188 671.859375 C 91.460938 671.382812 91.257812 670.742188 91.257812 669.9375 C 91.257812 668.886719 91.566406 668.128906 92.179688 667.664062 C 92.574219 667.375 92.992188 667.234375 93.445312 667.242188 L 93.445312 668.347656 C 93.179688 668.371094 92.941406 668.464844 92.722656 668.628906 C 92.414062 668.898438 92.261719 669.367188 92.261719 670.03125 C 92.261719 670.472656 92.34375 670.808594 92.515625 671.039062 C 92.683594 671.265625 92.90625 671.378906 93.183594 671.378906 C 93.488281 671.378906 93.730469 671.230469 93.914062 670.929688 C 94.023438 670.757812 94.117188 670.5 94.203125 670.160156 L 94.390625 669.386719 C 94.59375 668.542969 94.792969 667.976562 94.984375 667.691406 C 95.285156 667.234375 95.753906 667.007812 96.398438 667.007812 C 97.019531 667.007812 97.554688 667.242188 98.007812 667.714844 C 98.457031 668.183594 98.683594 668.902344 98.683594 669.867188 C 98.683594 670.90625 98.449219 671.640625 97.976562 672.074219 C 97.507812 672.503906 96.921875 672.738281 96.226562 672.765625 Z M 91.808594 661.054688 C 92.191406 660.5625 92.851562 660.265625 93.785156 660.164062 L 93.785156 661.304688 C 93.355469 661.375 92.996094 661.535156 92.710938 661.78125 C 92.429688 662.027344 92.285156 662.425781 92.285156 662.972656 C 92.285156 663.722656 92.652344 664.253906 93.378906 664.578125 C 93.855469 664.785156 94.4375 664.890625 95.132812 664.890625 C 95.832031 664.890625 96.421875 664.742188 96.898438 664.445312 C 97.378906 664.152344 97.617188 663.6875 97.617188 663.050781 C 97.617188 662.566406 97.46875 662.179688 97.167969 661.894531 C 96.871094 661.609375 96.464844 661.414062 95.949219 661.304688 L 95.949219 660.164062 C 96.875 660.296875 97.550781 660.621094 97.976562 661.144531 C 98.40625 661.664062 98.621094 662.332031 98.621094 663.144531 C 98.621094 664.054688 98.285156 664.78125 97.621094 665.324219 C 96.953125 665.867188 96.121094 666.140625 95.121094 666.140625 C 93.894531 666.140625 92.941406 665.84375 92.261719 665.246094 C 91.578125 664.652344 91.238281 663.894531 91.238281 662.972656 C 91.238281 662.1875 91.429688 661.546875 91.808594 661.054688 Z M 91.4375 658.960938 L 91.4375 657.847656 L 92.644531 657.847656 C 92.410156 657.753906 92.125 657.53125 91.789062 657.175781 C 91.449219 656.820312 91.28125 656.40625 91.28125 655.941406 C 91.28125 655.921875 91.285156 655.882812 91.289062 655.832031 C 91.292969 655.78125 91.300781 655.691406 91.316406 655.566406 L 92.554688 655.566406 C 92.539062 655.632812 92.53125 655.699219 92.527344 655.757812 C 92.523438 655.816406 92.519531 655.878906 92.519531 655.949219 C 92.519531 656.539062 92.710938 656.996094 93.089844 657.3125 C 93.46875 657.628906 93.910156 657.785156 94.402344 657.785156 L 98.417969 657.785156 L 98.417969 658.960938 Z M 91.472656 654.542969 L 91.472656 653.351562 L 98.417969 653.351562 L 98.417969 654.542969 Z M 88.84375 654.542969 L 88.84375 653.351562 L 90.175781 653.351562 L 90.175781 654.542969 Z M 91.4375 651.578125 L 91.4375 650.417969 L 92.429688 650.417969 C 92.085938 650.140625 91.835938 649.890625 91.679688 649.664062 C 91.414062 649.277344 91.28125 648.835938 91.28125 648.347656 C 91.28125 647.789062 91.417969 647.34375 91.691406 647.003906 C 91.847656 646.8125 92.078125 646.640625 92.382812 646.484375 C 92.011719 646.222656 91.734375 645.917969 91.554688 645.566406 C 91.371094 645.210938 91.28125 644.816406 91.28125 644.378906 C 91.28125 643.441406 91.621094 642.800781 92.300781 642.464844 C 92.664062 642.28125 93.15625 642.1875 93.773438 642.1875 L 98.417969 642.1875 L 98.417969 643.40625 L 93.570312 643.40625 C 93.105469 643.40625 92.785156 643.523438 92.613281 643.757812 C 92.4375 643.988281 92.351562 644.273438 92.351562 644.605469 C 92.351562 645.066406 92.503906 645.464844 92.8125 645.796875 C 93.121094 646.128906 93.636719 646.292969 94.359375 646.292969 L 98.417969 646.292969 L 98.417969 647.488281 L 93.863281 647.488281 C 93.390625 647.488281 93.042969 647.542969 92.828125 647.65625 C 92.5 647.835938 92.339844 648.167969 92.339844 648.652344 C 92.339844 649.097656 92.507812 649.5 92.851562 649.863281 C 93.195312 650.222656 93.816406 650.40625 94.714844 650.40625 L 98.417969 650.40625 L 98.417969 651.578125 Z M 91.472656 640.457031 L 91.472656 639.265625 L 98.417969 639.265625 L 98.417969 640.457031 Z M 88.84375 640.457031 L 88.84375 639.265625 L 90.175781 639.265625 L 90.175781 640.457031 Z M 91.4375 637.492188 L 91.4375 636.378906 L 92.429688 636.378906 C 92.019531 636.046875 91.726562 635.699219 91.550781 635.328125 C 91.371094 634.960938 91.28125 634.550781 91.28125 634.097656 C 91.28125 633.109375 91.628906 632.4375 92.320312 632.089844 C 92.695312 631.898438 93.238281 631.804688 93.941406 631.804688 L 98.417969 631.804688 L 98.417969 632.996094 L 94.019531 632.996094 C 93.59375 632.996094 93.25 633.058594 92.988281 633.1875 C 92.554688 633.394531 92.339844 633.773438 92.339844 634.320312 C 92.339844 634.597656 92.367188 634.824219 92.421875 635.003906 C 92.519531 635.324219 92.710938 635.605469 92.996094 635.851562 C 93.226562 636.046875 93.464844 636.171875 93.710938 636.230469 C 93.953125 636.289062 94.304688 636.320312 94.761719 636.320312 L 98.417969 636.320312 L 98.417969 637.492188 Z M 97.363281 628.808594 C 97.558594 628.5625 97.65625 628.265625 97.65625 627.929688 C 97.65625 627.515625 97.558594 627.117188 97.367188 626.730469 C 97.050781 626.078125 96.53125 625.753906 95.8125 625.753906 L 94.867188 625.753906 C 94.957031 625.894531 95.035156 626.082031 95.09375 626.304688 C 95.15625 626.53125 95.199219 626.753906 95.222656 626.972656 L 95.316406 627.679688 C 95.371094 628.105469 95.460938 628.425781 95.582031 628.640625 C 95.789062 629 96.113281 629.179688 96.558594 629.179688 C 96.898438 629.179688 97.167969 629.054688 97.363281 628.808594 Z M 94.1875 626.339844 C 94.152344 626.070312 94.039062 625.890625 93.851562 625.796875 C 93.746094 625.746094 93.59375 625.71875 93.398438 625.71875 C 93 625.71875 92.710938 625.863281 92.53125 626.148438 C 92.351562 626.429688 92.261719 626.839844 92.261719 627.367188 C 92.261719 627.980469 92.425781 628.414062 92.753906 628.671875 C 92.9375 628.816406 93.207031 628.910156 93.570312 628.953125 L 93.570312 630.046875 C 92.710938 630.023438 92.109375 629.746094 91.773438 629.210938 C 91.4375 628.671875 91.269531 628.050781 91.269531 627.34375 C 91.269531 626.519531 91.425781 625.855469 91.738281 625.34375 C 92.050781 624.832031 92.539062 624.578125 93.199219 624.578125 L 97.21875 624.578125 C 97.339844 624.578125 97.4375 624.554688 97.511719 624.503906 C 97.585938 624.453125 97.621094 624.347656 97.621094 624.1875 C 97.621094 624.136719 97.621094 624.078125 97.613281 624.011719 C 97.605469 623.949219 97.597656 623.878906 97.582031 623.804688 L 98.449219 623.804688 C 98.503906 623.988281 98.535156 624.125 98.546875 624.222656 C 98.5625 624.316406 98.566406 624.445312 98.566406 624.613281 C 98.566406 625.015625 98.425781 625.308594 98.136719 625.492188 C 97.984375 625.585938 97.769531 625.65625 97.492188 625.695312 C 97.804688 625.933594 98.078125 626.277344 98.304688 626.722656 C 98.535156 627.171875 98.652344 627.664062 98.652344 628.203125 C 98.652344 628.847656 98.457031 629.378906 98.0625 629.789062 C 97.667969 630.199219 97.175781 630.40625 96.585938 630.40625 C 95.9375 630.40625 95.4375 630.203125 95.082031 629.796875 C 94.726562 629.394531 94.503906 628.863281 94.421875 628.207031 Z M 89.492188 622.429688 L 89.492188 621.246094 L 91.4375 621.246094 L 91.4375 620.128906 L 92.398438 620.128906 L 92.398438 621.246094 L 96.953125 621.246094 C 97.195312 621.246094 97.359375 621.164062 97.441406 620.996094 C 97.488281 620.90625 97.511719 620.753906 97.511719 620.539062 C 97.511719 620.484375 97.511719 620.421875 97.507812 620.359375 C 97.507812 620.292969 97.5 620.21875 97.492188 620.128906 L 98.417969 620.128906 C 98.457031 620.265625 98.484375 620.40625 98.503906 620.550781 C 98.519531 620.695312 98.527344 620.855469 98.527344 621.023438 C 98.527344 621.570312 98.386719 621.941406 98.109375 622.136719 C 97.828125 622.332031 97.464844 622.429688 97.015625 622.429688 L 92.398438 622.429688 L 92.398438 623.375 L 91.4375 623.375 L 91.4375 622.429688 Z M 96.777344 614.589844 C 96.191406 614.300781 95.535156 614.15625 94.8125 614.15625 C 94.164062 614.15625 93.632812 614.261719 93.222656 614.46875 C 92.582031 614.800781 92.261719 615.367188 92.261719 616.175781 C 92.261719 616.894531 92.535156 617.414062 93.082031 617.738281 C 93.628906 618.066406 94.289062 618.230469 95.0625 618.230469 C 95.804688 618.230469 96.421875 618.066406 96.917969 617.738281 C 97.414062 617.414062 97.660156 616.898438 97.660156 616.1875 C 97.660156 615.410156 97.367188 614.878906 96.777344 614.589844 Z M 92.136719 613.863281 C 92.734375 613.242188 93.617188 612.929688 94.78125 612.929688 C 95.90625 612.929688 96.835938 613.203125 97.570312 613.753906 C 98.304688 614.300781 98.671875 615.148438 98.671875 616.300781 C 98.671875 617.261719 98.347656 618.023438 97.699219 618.585938 C 97.046875 619.152344 96.175781 619.433594 95.082031 619.433594 C 93.910156 619.433594 92.972656 619.136719 92.28125 618.542969 C 91.585938 617.945312 91.238281 617.148438 91.238281 616.144531 C 91.238281 615.246094 91.535156 614.484375 92.136719 613.863281 Z M 91.4375 611.511719 L 91.4375 610.398438 L 92.644531 610.398438 C 92.410156 610.304688 92.125 610.082031 91.789062 609.726562 C 91.449219 609.371094 91.28125 608.960938 91.28125 608.496094 C 91.28125 608.472656 91.285156 608.4375 91.289062 608.382812 C 91.292969 608.332031 91.300781 608.242188 91.316406 608.117188 L 92.554688 608.117188 C 92.539062 608.1875 92.53125 608.25 92.527344 608.308594 C 92.523438 608.367188 92.519531 608.433594 92.519531 608.5 C 92.519531 609.09375 92.710938 609.546875 93.089844 609.863281 C 93.46875 610.179688 93.910156 610.339844 94.402344 610.339844 L 98.417969 610.339844 L 98.417969 611.511719 Z M 91.4375 611.511719 "/>
<path style=" stroke:none;fill-rule:evenodd;fill:rgb(0%,0%,0%);fill-opacity:1;" d="M 305.972656 629.011719 C 306.46875 628.0625 307.347656 627.480469 308.597656 627.265625 L 308.597656 628.550781 C 307.898438 628.707031 307.386719 629.03125 307.070312 629.519531 C 306.75 630.011719 306.589844 630.628906 306.589844 631.378906 C 306.589844 632.265625 306.921875 633.011719 307.585938 633.617188 C 308.25 634.222656 309.242188 634.523438 310.558594 634.523438 C 311.695312 634.523438 312.621094 634.273438 313.335938 633.777344 C 314.050781 633.277344 314.410156 632.460938 314.410156 631.332031 C 314.410156 630.46875 314.160156 629.753906 313.65625 629.183594 C 313.15625 628.617188 312.34375 628.328125 311.222656 628.316406 L 311.222656 631.3125 L 310.148438 631.3125 L 310.148438 627.109375 L 315.269531 627.109375 L 315.269531 627.945312 L 314.039062 628.257812 C 314.519531 628.695312 314.855469 629.085938 315.042969 629.421875 C 315.363281 629.992188 315.523438 630.714844 315.523438 631.59375 C 315.523438 632.726562 315.15625 633.703125 314.421875 634.519531 C 313.5 635.410156 312.238281 635.855469 310.628906 635.855469 C 309.027344 635.855469 307.753906 635.417969 306.804688 634.550781 C 305.902344 633.726562 305.449219 632.65625 305.449219 631.34375 C 305.449219 630.445312 305.625 629.667969 305.972656 629.011719 Z M 308.484375 620.914062 C 308.714844 620.449219 309.015625 620.09375 309.386719 619.851562 C 309.738281 619.617188 310.148438 619.460938 310.617188 619.382812 C 310.9375 619.3125 311.449219 619.277344 312.15625 619.277344 L 312.15625 624.394531 C 312.863281 624.371094 313.429688 624.203125 313.859375 623.890625 C 314.285156 623.578125 314.5 623.09375 314.5 622.4375 C 314.5 621.824219 314.296875 621.335938 313.894531 620.972656 C 313.660156 620.765625 313.386719 620.617188 313.078125 620.53125 L 313.078125 619.375 C 313.335938 619.40625 313.621094 619.507812 313.9375 619.679688 C 314.25 619.851562 314.507812 620.042969 314.707031 620.253906 C 315.054688 620.613281 315.289062 621.054688 315.414062 621.578125 C 315.480469 621.859375 315.515625 622.179688 315.515625 622.535156 C 315.515625 623.40625 315.199219 624.140625 314.570312 624.746094 C 313.9375 625.347656 313.050781 625.652344 311.914062 625.652344 C 310.792969 625.652344 309.882812 625.347656 309.183594 624.738281 C 308.484375 624.128906 308.132812 623.335938 308.132812 622.355469 C 308.132812 621.859375 308.25 621.378906 308.484375 620.914062 Z M 311.222656 620.484375 C 310.714844 620.53125 310.308594 620.640625 310.003906 620.816406 C 309.441406 621.136719 309.15625 621.675781 309.15625 622.425781 C 309.15625 622.964844 309.351562 623.414062 309.742188 623.78125 C 310.128906 624.144531 310.625 624.339844 311.222656 624.359375 Z M 308.289062 617.847656 L 308.289062 616.730469 L 309.28125 616.730469 C 308.871094 616.402344 308.578125 616.050781 308.402344 615.683594 C 308.222656 615.3125 308.132812 614.902344 308.132812 614.453125 C 308.132812 613.460938 308.480469 612.792969 309.171875 612.445312 C 309.546875 612.253906 310.089844 612.15625 310.792969 612.15625 L 315.269531 612.15625 L 315.269531 613.351562 L 310.871094 613.351562 C 310.445312 613.351562 310.101562 613.414062 309.839844 613.539062 C 309.40625 613.746094 309.191406 614.125 309.191406 614.671875 C 309.191406 614.949219 309.21875 615.179688 309.273438 615.355469 C 309.371094 615.679688 309.5625 615.960938 309.847656 616.203125 C 310.078125 616.398438 310.316406 616.527344 310.5625 616.585938 C 310.808594 616.644531 311.15625 616.671875 311.613281 616.671875 L 315.269531 616.671875 L 315.269531 617.847656 Z M 308.484375 606.085938 C 308.714844 605.621094 309.015625 605.265625 309.386719 605.023438 C 309.738281 604.789062 310.148438 604.632812 310.617188 604.554688 C 310.9375 604.484375 311.449219 604.449219 312.15625 604.449219 L 312.15625 609.566406 C 312.863281 609.542969 313.429688 609.378906 313.859375 609.0625 C 314.285156 608.75 314.5 608.265625 314.5 607.609375 C 314.5 607 314.296875 606.511719 313.894531 606.144531 C 313.660156 605.9375 313.386719 605.789062 313.078125 605.703125 L 313.078125 604.546875 C 313.335938 604.578125 313.621094 604.679688 313.9375 604.851562 C 314.25 605.023438 314.507812 605.214844 314.707031 605.429688 C 315.054688 605.785156 315.289062 606.226562 315.414062 606.75 C 315.480469 607.035156 315.515625 607.351562 315.515625 607.707031 C 315.515625 608.578125 315.199219 609.3125 314.570312 609.917969 C 313.9375 610.523438 313.050781 610.824219 311.914062 610.824219 C 310.792969 610.824219 309.882812 610.519531 309.183594 609.910156 C 308.484375 609.304688 308.132812 608.507812 308.132812 607.527344 C 308.132812 607.03125 308.25 606.550781 308.484375 606.085938 Z M 311.222656 605.65625 C 310.714844 605.703125 310.308594 605.816406 310.003906 605.988281 C 309.441406 606.308594 309.15625 606.847656 309.15625 607.597656 C 309.15625 608.136719 309.351562 608.589844 309.742188 608.953125 C 310.128906 609.316406 310.625 609.511719 311.222656 609.535156 Z M 308.289062 602.984375 L 308.289062 601.871094 L 309.496094 601.871094 C 309.261719 601.78125 308.976562 601.558594 308.640625 601.199219 C 308.300781 600.84375 308.132812 600.433594 308.132812 599.96875 C 308.132812 599.949219 308.136719 599.910156 308.140625 599.859375 C 308.144531 599.804688 308.152344 599.71875 308.167969 599.589844 L 309.40625 599.589844 C 309.390625 599.660156 309.382812 599.726562 309.378906 599.785156 C 309.375 599.84375 309.371094 599.90625 309.371094 599.976562 C 309.371094 600.566406 309.5625 601.019531 309.941406 601.335938 C 310.324219 601.65625 310.761719 601.8125 311.253906 601.8125 L 315.269531 601.8125 L 315.269531 602.984375 Z M 314.214844 597.300781 C 314.410156 597.050781 314.507812 596.757812 314.507812 596.421875 C 314.507812 596.007812 314.410156 595.609375 314.21875 595.222656 C 313.902344 594.570312 313.382812 594.242188 312.664062 594.242188 L 311.71875 594.242188 C 311.808594 594.386719 311.886719 594.570312 311.945312 594.796875 C 312.007812 595.023438 312.050781 595.246094 312.078125 595.460938 L 312.167969 596.171875 C 312.222656 596.597656 312.3125 596.917969 312.433594 597.128906 C 312.640625 597.492188 312.964844 597.671875 313.414062 597.671875 C 313.75 597.671875 314.019531 597.546875 314.214844 597.300781 Z M 311.039062 594.832031 C 311.003906 594.5625 310.894531 594.378906 310.703125 594.289062 C 310.597656 594.238281 310.449219 594.210938 310.253906 594.210938 C 309.851562 594.210938 309.5625 594.355469 309.382812 594.636719 C 309.203125 594.921875 309.113281 595.328125 309.113281 595.859375 C 309.113281 596.472656 309.277344 596.90625 309.605469 597.164062 C 309.789062 597.304688 310.0625 597.398438 310.421875 597.441406 L 310.421875 598.539062 C 309.5625 598.515625 308.964844 598.238281 308.625 597.699219 C 308.289062 597.164062 308.121094 596.542969 308.121094 595.832031 C 308.121094 595.011719 308.277344 594.347656 308.589844 593.832031 C 308.902344 593.324219 309.390625 593.070312 310.050781 593.070312 L 314.070312 593.070312 C 314.191406 593.070312 314.289062 593.046875 314.363281 592.996094 C 314.4375 592.945312 314.472656 592.839844 314.472656 592.679688 C 314.472656 592.628906 314.472656 592.570312 314.464844 592.503906 C 314.457031 592.4375 314.449219 592.371094 314.433594 592.296875 L 315.300781 592.296875 C 315.355469 592.476562 315.386719 592.617188 315.398438 592.710938 C 315.414062 592.808594 315.417969 592.9375 315.417969 593.105469 C 315.417969 593.507812 315.277344 593.800781 314.988281 593.984375 C 314.835938 594.078125 314.621094 594.144531 314.34375 594.183594 C 314.65625 594.425781 314.929688 594.765625 315.160156 595.214844 C 315.390625 595.664062 315.503906 596.15625 315.503906 596.695312 C 315.503906 597.339844 315.308594 597.871094 314.914062 598.28125 C 314.519531 598.691406 314.027344 598.894531 313.4375 598.894531 C 312.792969 598.894531 312.289062 598.695312 311.933594 598.289062 C 311.578125 597.886719 311.359375 597.355469 311.273438 596.699219 Z M 306.34375 590.921875 L 306.34375 589.738281 L 308.289062 589.738281 L 308.289062 588.621094 L 309.25 588.621094 L 309.25 589.738281 L 313.804688 589.738281 C 314.046875 589.738281 314.210938 589.652344 314.292969 589.488281 C 314.339844 589.398438 314.363281 589.246094 314.363281 589.03125 C 314.363281 588.976562 314.363281 588.914062 314.359375 588.851562 C 314.359375 588.785156 314.351562 588.707031 314.34375 588.621094 L 315.269531 588.621094 C 315.308594 588.757812 315.335938 588.898438 315.355469 589.042969 C 315.371094 589.1875 315.378906 589.34375 315.378906 589.515625 C 315.378906 590.0625 315.238281 590.433594 314.960938 590.628906 C 314.679688 590.824219 314.316406 590.921875 313.867188 590.921875 L 309.25 590.921875 L 309.25 591.867188 L 308.289062 591.867188 L 308.289062 590.921875 Z M 313.628906 583.082031 C 313.042969 582.792969 312.386719 582.648438 311.664062 582.648438 C 311.015625 582.648438 310.484375 582.75 310.074219 582.960938 C 309.433594 583.289062 309.113281 583.859375 309.113281 584.667969 C 309.113281 585.382812 309.386719 585.90625 309.933594 586.230469 C 310.480469 586.558594 311.140625 586.71875 311.914062 586.71875 C 312.65625 586.71875 313.277344 586.558594 313.769531 586.230469 C 314.265625 585.90625 314.511719 585.390625 314.511719 584.679688 C 314.511719 583.902344 314.21875 583.371094 313.628906 583.082031 Z M 308.988281 582.355469 C 309.585938 581.734375 310.46875 581.421875 311.632812 581.421875 C 312.757812 581.421875 313.6875 581.695312 314.421875 582.242188 C 315.15625 582.792969 315.523438 583.640625 315.523438 584.792969 C 315.523438 585.75 315.199219 586.515625 314.550781 587.078125 C 313.898438 587.644531 313.027344 587.925781 311.933594 587.925781 C 310.761719 587.925781 309.828125 587.628906 309.132812 587.03125 C 308.4375 586.4375 308.089844 585.636719 308.089844 584.636719 C 308.089844 583.734375 308.386719 582.976562 308.988281 582.355469 Z M 308.289062 580.003906 L 308.289062 578.890625 L 309.496094 578.890625 C 309.261719 578.796875 308.976562 578.574219 308.640625 578.21875 C 308.300781 577.863281 308.132812 577.453125 308.132812 576.988281 C 308.132812 576.964844 308.136719 576.929688 308.140625 576.875 C 308.144531 576.824219 308.152344 576.734375 308.167969 576.609375 L 309.40625 576.609375 C 309.390625 576.679688 309.382812 576.742188 309.378906 576.800781 C 309.375 576.859375 309.371094 576.921875 309.371094 576.992188 C 309.371094 577.585938 309.5625 578.039062 309.941406 578.355469 C 310.324219 578.671875 310.761719 578.832031 311.253906 578.832031 L 315.269531 578.832031 L 315.269531 580.003906 Z M 308.289062 580.003906 "/>
<path style=" stroke:none;fill-rule:evenodd;fill:rgb(0%,0%,0%);fill-opacity:1;" d="M 498.203125 631.339844 L 493.199219 627.203125 L 493.199219 631.035156 L 492.152344 631.035156 L 492.152344 625.628906 L 493.109375 625.628906 L 498.082031 629.738281 L 498.082031 625.503906 L 499.128906 625.503906 L 499.128906 631.339844 Z M 498.203125 631.339844 "/>
<path style=" stroke:none;fill-rule:evenodd;fill:rgb(0%,0%,0%);fill-opacity:1;" d="M 492.152344 203.878906 L 492.152344 202.582031 C 492.597656 202.746094 493.621094 203.113281 495.214844 203.683594 C 496.414062 204.109375 497.390625 204.464844 498.144531 204.75 C 499.925781 205.429688 501.011719 205.90625 501.402344 206.183594 C 501.796875 206.460938 501.992188 206.941406 501.992188 207.617188 C 501.992188 207.785156 501.984375 207.910156 501.972656 208 C 501.957031 208.089844 501.933594 208.199219 501.898438 208.328125 L 500.832031 208.328125 C 500.886719 208.125 500.921875 207.976562 500.933594 207.886719 C 500.949219 207.792969 500.953125 207.714844 500.953125 207.644531 C 500.953125 207.425781 500.917969 207.265625 500.847656 207.164062 C 500.773438 207.0625 500.6875 206.976562 500.582031 206.90625 C 500.546875 206.886719 500.371094 206.808594 500.046875 206.671875 C 499.726562 206.539062 499.488281 206.441406 499.332031 206.378906 L 492.152344 208.960938 L 492.152344 207.632812 L 497.832031 205.761719 Z M 492.152344 203.878906 "/>
<path style=" stroke:none;fill-rule:evenodd;fill:rgb(0%,0%,0%);fill-opacity:1;" d="M 314.867188 538.75 C 315.367188 537.800781 316.242188 537.214844 317.492188 537.003906 L 317.492188 538.289062 C 316.792969 538.445312 316.285156 538.769531 315.964844 539.257812 C 315.644531 539.75 315.488281 540.367188 315.488281 541.117188 C 315.488281 542 315.820312 542.746094 316.484375 543.355469 C 317.148438 543.960938 318.136719 544.261719 319.453125 544.261719 C 320.59375 544.261719 321.519531 544.011719 322.234375 543.511719 C 322.949219 543.015625 323.304688 542.199219 323.304688 541.070312 C 323.304688 540.207031 323.054688 539.488281 322.554688 538.921875 C 322.050781 538.355469 321.238281 538.066406 320.121094 538.054688 L 320.121094 541.050781 L 319.042969 541.050781 L 319.042969 536.847656 L 324.164062 536.847656 L 324.164062 537.679688 L 322.933594 537.996094 C 323.417969 538.433594 323.75 538.820312 323.9375 539.160156 C 324.257812 539.730469 324.417969 540.453125 324.417969 541.332031 C 324.417969 542.464844 324.054688 543.441406 323.320312 544.257812 C 322.398438 545.148438 321.132812 545.59375 319.527344 545.59375 C 317.921875 545.59375 316.648438 545.15625 315.703125 544.289062 C 314.796875 543.464844 314.347656 542.394531 314.347656 541.082031 C 314.347656 540.183594 314.519531 539.40625 314.867188 538.75 Z M 314.4375 531.910156 C 315.761719 532.589844 316.738281 533.035156 317.363281 533.238281 C 318.3125 533.546875 319.414062 533.699219 320.660156 533.699219 C 321.921875 533.699219 323.070312 533.523438 324.113281 533.171875 C 324.757812 532.957031 325.683594 532.527344 326.890625 531.890625 L 326.890625 532.679688 C 325.898438 533.3125 325.265625 533.707031 324.992188 533.859375 C 324.71875 534.007812 324.347656 534.175781 323.878906 534.351562 C 323.234375 534.597656 322.550781 534.765625 321.820312 534.859375 C 321.441406 534.910156 321.082031 534.933594 320.738281 534.933594 C 319.453125 534.933594 318.308594 534.730469 317.304688 534.328125 C 316.664062 534.070312 315.710938 533.535156 314.4375 532.722656 Z M 323.242188 531.070312 L 318.234375 526.933594 L 318.234375 530.765625 L 317.1875 530.765625 L 317.1875 525.355469 L 318.144531 525.355469 L 323.117188 529.46875 L 323.117188 525.234375 L 324.164062 525.234375 L 324.164062 531.070312 Z M 324.164062 522.683594 L 324.164062 523.800781 L 314.457031 523.800781 L 314.457031 522.683594 Z M 317.1875 516.183594 L 317.1875 514.886719 C 317.632812 515.050781 318.65625 515.417969 320.25 515.984375 C 321.449219 516.410156 322.425781 516.769531 323.183594 517.054688 C 324.964844 517.734375 326.050781 518.210938 326.441406 518.488281 C 326.832031 518.765625 327.027344 519.246094 327.027344 519.921875 C 327.027344 520.085938 327.019531 520.214844 327.007812 520.304688 C 326.992188 520.390625 326.96875 520.5 326.933594 520.632812 L 325.867188 520.632812 C 325.921875 520.429688 325.957031 520.28125 325.96875 520.1875 C 325.984375 520.097656 325.992188 520.015625 325.992188 519.949219 C 325.992188 519.730469 325.953125 519.570312 325.882812 519.46875 C 325.8125 519.367188 325.722656 519.28125 325.617188 519.210938 C 325.585938 519.191406 325.40625 519.113281 325.085938 518.976562 C 324.761719 518.84375 324.523438 518.746094 324.367188 518.683594 L 317.1875 521.265625 L 317.1875 519.933594 L 322.867188 518.066406 Z M 326.890625 514.265625 C 325.542969 513.574219 324.5625 513.128906 323.945312 512.929688 C 323.011719 512.625 321.914062 512.472656 320.660156 512.472656 C 319.40625 512.472656 318.253906 512.648438 317.214844 513.003906 C 316.570312 513.21875 315.644531 513.648438 314.4375 514.285156 L 314.4375 513.496094 C 315.507812 512.828125 316.164062 512.421875 316.414062 512.28125 C 316.664062 512.140625 317.007812 511.988281 317.449219 511.824219 C 317.992188 511.613281 318.527344 511.464844 319.058594 511.375 C 319.585938 511.289062 320.097656 511.242188 320.589844 511.242188 C 321.875 511.242188 323.019531 511.445312 324.027344 511.855469 C 324.675781 512.113281 325.628906 512.644531 326.890625 513.453125 Z M 326.890625 514.265625 "/>
<path style=" stroke:none;fill-rule:evenodd;fill:rgb(0%,0%,0%);fill-opacity:1;" d="M 236.007812 679.675781 L 236.007812 678.15625 L 238.464844 676.554688 L 236.007812 674.929688 L 236.039062 673.503906 L 239.40625 675.855469 L 242.984375 673.398438 L 242.984375 674.898438 L 240.367188 676.632812 L 242.984375 678.3125 L 242.984375 679.796875 L 239.40625 677.339844 Z M 236.007812 679.675781 "/>
<path style=" stroke:none;fill-rule:evenodd;fill:rgb(0%,0%,0%);fill-opacity:1;" d="M 231.929688 166.808594 L 231.929688 165.511719 C 232.375 165.675781 233.398438 166.042969 234.992188 166.613281 C 236.191406 167.039062 237.167969 167.394531 237.925781 167.683594 C 239.703125 168.359375 240.789062 168.839844 241.183594 169.117188 C 241.574219 169.394531 241.769531 169.871094 241.769531 170.550781 C 241.769531 170.714844 241.761719 170.839844 241.75 170.929688 C 241.734375 171.019531 241.710938 171.128906 241.675781 171.257812 L 240.609375 171.257812 C 240.664062 171.054688 240.699219 170.90625 240.710938 170.816406 C 240.726562 170.726562 240.730469 170.644531 240.730469 170.574219 C 240.730469 170.359375 240.695312 170.199219 240.625 170.097656 C 240.554688 169.996094 240.464844 169.910156 240.359375 169.839844 C 240.324219 169.816406 240.148438 169.738281 239.828125 169.605469 C 239.503906 169.46875 239.265625 169.371094 239.109375 169.3125 L 231.929688 171.890625 L 231.929688 170.5625 L 237.609375 168.691406 Z M 231.929688 166.808594 "/>
<path style=" stroke:none;fill-rule:evenodd;fill:rgb(0%,0%,0%);fill-opacity:1;" d="M 101.757812 465.183594 C 101.757812 464.746094 101.710938 464.386719 101.621094 464.101562 C 101.453125 463.597656 101.125 463.1875 100.644531 462.863281 C 100.257812 462.609375 99.761719 462.421875 99.15625 462.308594 C 98.796875 462.246094 98.464844 462.210938 98.15625 462.210938 C 96.96875 462.210938 96.046875 462.449219 95.390625 462.917969 C 94.734375 463.390625 94.40625 464.148438 94.40625 465.195312 L 94.40625 467.496094 L 101.757812 467.496094 Z M 93.292969 468.800781 L 93.292969 464.921875 C 93.292969 463.605469 93.761719 462.585938 94.695312 461.859375 C 95.539062 461.214844 96.617188 460.890625 97.933594 460.890625 C 98.949219 460.890625 99.867188 461.082031 100.6875 461.464844 C 102.140625 462.136719 102.867188 463.292969 102.867188 464.9375 L 102.867188 468.800781 Z M 93.136719 456.289062 C 94.460938 456.972656 95.4375 457.414062 96.0625 457.617188 C 97.015625 457.925781 98.113281 458.082031 99.359375 458.082031 C 100.621094 458.082031 101.769531 457.90625 102.8125 457.554688 C 103.457031 457.335938 104.382812 456.90625 105.589844 456.269531 L 105.589844 457.058594 C 104.597656 457.691406 103.96875 458.085938 103.691406 458.238281 C 103.417969 458.390625 103.046875 458.554688 102.578125 458.734375 C 101.9375 458.976562 101.25 459.144531 100.519531 459.242188 C 100.140625 459.289062 99.78125 459.3125 99.4375 459.3125 C 98.152344 459.3125 97.007812 459.109375 96.003906 458.707031 C 95.367188 458.449219 94.410156 457.914062 93.136719 457.105469 Z M 95.886719 455.59375 L 95.886719 454.074219 L 98.34375 452.472656 L 95.886719 450.851562 L 95.917969 449.421875 L 99.289062 451.777344 L 102.867188 449.320312 L 102.867188 450.816406 L 100.246094 452.550781 L 102.867188 454.230469 L 102.867188 455.71875 L 99.289062 453.261719 Z M 102.867188 447.066406 L 102.867188 448.179688 L 93.15625 448.179688 L 93.15625 447.066406 Z M 95.886719 440.5625 L 95.886719 439.265625 C 96.335938 439.429688 97.355469 439.796875 98.949219 440.367188 C 100.148438 440.792969 101.125 441.148438 101.882812 441.433594 C 103.664062 442.113281 104.75 442.589844 105.140625 442.867188 C 105.53125 443.144531 105.726562 443.625 105.726562 444.300781 C 105.726562 444.46875 105.71875 444.59375 105.707031 444.683594 C 105.695312 444.773438 105.667969 444.882812 105.636719 445.011719 L 104.566406 445.011719 C 104.621094 444.808594 104.65625 444.660156 104.671875 444.570312 C 104.683594 444.476562 104.691406 444.398438 104.691406 444.328125 C 104.691406 444.109375 104.652344 443.949219 104.582031 443.847656 C 104.511719 443.746094 104.421875 443.660156 104.320312 443.589844 C 104.285156 443.570312 104.105469 443.492188 103.785156 443.355469 C 103.464844 443.222656 103.222656 443.125 103.066406 443.0625 L 95.886719 445.644531 L 95.886719 444.316406 L 101.570312 442.445312 Z M 105.589844 438.644531 C 104.242188 437.957031 103.261719 437.511719 102.644531 437.308594 C 101.710938 437.007812 100.617188 436.855469 99.359375 436.855469 C 98.105469 436.855469 96.957031 437.03125 95.914062 437.382812 C 95.269531 437.597656 94.34375 438.027344 93.136719 438.664062 L 93.136719 437.878906 C 94.207031 437.207031 94.863281 436.804688 95.113281 436.660156 C 95.363281 436.519531 95.707031 436.367188 96.148438 436.203125 C 96.691406 435.992188 97.226562 435.84375 97.757812 435.757812 C 98.285156 435.667969 98.796875 435.621094 99.289062 435.621094 C 100.574219 435.621094 101.722656 435.828125 102.730469 436.234375 C 103.375 436.492188 104.328125 437.023438 105.589844 437.832031 Z M 105.589844 438.644531 "/>
</g>
</svg>
