<?xml version="1.0" encoding="UTF-8"?>
<svg width="285px" height="381px" viewBox="0 0 285 381" version="1.1" xmlns="http://www.w3.org/2000/svg" xmlns:xlink="http://www.w3.org/1999/xlink">
    <!-- Generator: Sketch 52.3 (67297) - http://www.bohemiancoding.com/sketch -->
    <title>Group</title>
    <desc>Created with Sketch.</desc>
    <g id="Page-1" stroke="none" stroke-width="1" fill="none" fill-rule="evenodd">
        <g id="pycon_012" transform="translate(-155.000000, -107.000000)">
            <g id="Group" transform="translate(155.000000, 107.000000)">
                <path d="M0.8972,306.8844 L21.0432,306.8844 L114.0252,164.3384 L22.5702,25.3654 L2.9432,25.3654 L2.9432,17.5634 L98.0732,17.5634 L98.0732,25.3654 L76.7302,25.3654 L136.5082,119.8894 C142.1272,127.5544 145.7022,134.1964 145.7022,134.1964 L146.7242,134.1964 C146.7242,134.1964 149.7932,127.5544 155.4122,119.8894 L213.1452,25.3654 L192.8252,25.3654 L192.8252,17.5634 L284.3782,17.5634 L284.3782,25.3654 L264.2362,25.3654 L170.7422,168.9344 L262.7092,306.8844 L283.3562,306.8844 L283.3562,315.1974 L188.2282,315.1974 L188.2282,306.8844 L209.0602,306.8844 L148.7702,212.8724 C143.1512,204.7014 139.5712,198.0604 139.5712,198.0604 L138.5542,198.0604 C138.0432,198.0604 135.4862,204.7014 130.3772,212.8724 L72.1332,306.8844 L92.9652,306.8844 L92.9652,315.1974 L0.8972,315.1974 L0.8972,306.8844 Z" id="Fill-1" fill="#BC9D55"></path>
                <path d="M145.7908,89.7623 C125.1278,89.7623 106.3108,63.5753 106.3108,34.8233 C106.3108,11.1293 118.4858,0.5633 145.7908,0.5633 C164.6308,0.5633 175.9728,5.5333 181.4838,16.2033 L182.8788,18.9053 L182.8008,18.9443 C196.1548,43.9003 236.2768,46.1493 236.6938,46.1693 L236.4068,52.1623 C235.9318,52.1393 224.6138,51.5573 211.5428,47.2643 C193.9188,41.4763 181.6518,31.6303 176.0668,18.7923 C171.6598,10.4493 162.0318,6.5633 145.7908,6.5633 C122.0108,6.5633 112.3108,14.7503 112.3108,34.8233 C112.3108,60.4363 128.2688,83.7623 145.7908,83.7623 C155.4688,83.7623 165.2378,76.4143 171.9248,64.1083 L177.1958,66.9713 C169.4438,81.2423 157.7038,89.7623 145.7908,89.7623" id="Fill-3" fill="#BC9D55"></path>
                <path d="M152.0437,34.7047 C153.3587,28.8847 155.4947,26.7577 159.1827,27.5917 C162.8697,28.4257 163.8817,31.2647 162.5657,37.0837 C160.9337,44.3037 156.9397,50.3107 154.1857,49.6887 C151.4327,49.0657 150.4107,41.9247 152.0437,34.7047" id="Fill-5" fill="#BC9D55"></path>
                <path d="M135.739,49.6891 C132.986,50.3111 128.991,44.3031 127.359,37.0841 C126.043,31.2641 127.054,28.4251 130.743,27.5911 C134.43,26.7571 136.565,28.8841 137.881,34.7051 C139.513,41.9241 138.493,49.0661 135.739,49.6891" id="Fill-7" fill="#BC9D55"></path>
                <path d="M86.5115,282.2955 C42.2765,282.2955 6.2875,246.3075 6.2875,202.0715 C6.2875,157.8365 42.2765,121.8495 86.5115,121.8495 L196.1405,120.7285 L196.2005,126.7285 L86.5415,127.8495 C45.5845,127.8495 12.2875,161.1455 12.2875,202.0715 C12.2875,242.9985 45.5845,276.2955 86.5115,276.2955 L86.5115,282.2955 Z" id="Fill-9" fill="#BC9D55"></path>
                <path d="M90.2761,223.2262 C73.8721,223.2262 60.5261,209.8802 60.5261,193.4762 C60.5261,177.0722 73.8721,163.7262 90.2761,163.7262 L140.4111,163.7262 L140.4111,169.7262 L90.2761,169.7262 C77.1801,169.7262 66.5261,180.3802 66.5261,193.4762 C66.5261,206.5722 77.1801,217.2262 90.2761,217.2262 L90.2761,223.2262 Z" id="Fill-11" fill="#BC9D55"></path>
                <path d="M77.2341,280.193 C44.9551,280.193 18.6931,253.931 18.6931,221.652 C18.6931,189.373 44.9551,163.111 77.2341,163.111 L142.6371,163.111 L142.6371,167.111 L77.2341,167.111 C47.1601,167.111 22.6931,191.578 22.6931,221.652 C22.6931,251.726 47.1601,276.193 77.2341,276.193 L77.2341,280.193 Z" id="Fill-13" fill="#BC9D55"></path>
                <path d="M220.9714,169.7047 L108.9014,169.7047 L108.9014,163.7047 L220.9714,163.7047 C252.2884,163.7047 277.7674,138.2257 277.7674,106.9077 C277.7674,75.5907 252.2884,50.1117 220.9714,50.1117 L220.9714,44.1117 C255.5974,44.1117 283.7674,72.2817 283.7674,106.9077 C283.7674,141.5337 255.5974,169.7047 220.9714,169.7047" id="Fill-15" fill="#BC9D55"></path>
                <path d="M218.3728,127.4674 L184.3058,127.4674 L184.3058,121.4674 L218.3728,121.4674 C226.7408,121.4674 233.5498,114.6584 233.5498,106.2894 C233.5498,97.9214 226.7408,91.1134 218.3728,91.1134 L218.3728,85.1134 C230.0498,85.1134 239.5498,94.6134 239.5498,106.2894 C239.5498,117.9674 230.0498,127.4674 218.3728,127.4674" id="Fill-17" fill="#BC9D55"></path>
                <path d="M227.4421,127.3707 L154.4971,127.3707 L154.4971,123.3707 L227.4421,123.3707 C247.8001,123.3707 264.3641,106.8077 264.3641,86.4487 C264.3641,66.0907 247.8001,49.5277 227.4421,49.5277 L227.4421,45.5277 C250.0061,45.5277 268.3641,63.8857 268.3641,86.4487 C268.3641,109.0137 250.0061,127.3707 227.4421,127.3707" id="Fill-19" fill="#BC9D55"></path>
                <path d="M87.5115,280.0231 L185.3965,280.0231 L190.1515,280.3311 C218.0945,280.3311 240.7465,257.6781 240.7465,229.7351 C240.7465,201.7921 223.3885,179.4681 195.4455,179.4681 L195.9165,179.5931 L192.1335,179.2811 C205.6175,179.2811 216.5495,190.2121 216.5495,203.6971 C216.5495,217.1821 205.6175,228.1141 192.1335,228.1141 L188.5375,228.2131 L119.3025,228.2131 L87.5115,280.0231 Z" id="Fill-21" fill="#262626"></path>
                <path d="M92.8718,277.0231 L185.3958,277.0231 C185.4608,277.0231 185.5248,277.0251 185.5898,277.0291 L190.2468,277.3311 C216.4468,277.2791 237.7468,255.9471 237.7468,229.7351 C237.7468,209.1871 228.2658,193.2151 213.2768,186.2631 C217.1938,191.0041 219.5498,197.0821 219.5498,203.6971 C219.5498,218.8151 207.2508,231.1141 192.1338,231.1141 L188.6208,231.2121 L120.9808,231.2131 L92.8718,277.0231 Z M190.1508,283.3311 C190.0868,283.3311 190.0218,283.3291 189.9578,283.3251 L185.2988,283.0231 L87.5118,283.0231 C86.4258,283.0231 85.4238,282.4361 84.8928,281.4881 C84.3628,280.5411 84.3868,279.3791 84.9548,278.4541 L116.7458,226.6441 C117.2908,225.7551 118.2598,225.2131 119.3028,225.2131 L188.5378,225.2131 L192.0508,225.1151 C203.9418,225.1141 213.5498,215.5061 213.5498,203.6971 C213.5498,193.1281 205.8528,184.3221 195.7698,182.5891 C195.7368,182.5881 195.7038,182.5861 195.6698,182.5841 L191.8868,182.2711 C190.2828,182.1381 189.0698,180.7641 189.1368,179.1571 C189.2018,177.5491 190.5248,176.2811 192.1338,176.2811 C193.2258,176.2811 194.3018,176.3451 195.3598,176.4691 C195.3888,176.4681 195.4168,176.4681 195.4448,176.4681 C209.7418,176.4681 221.9828,181.8951 230.8458,192.1631 C239.1648,201.8001 243.7468,215.1441 243.7468,229.7351 C243.7468,259.2881 219.7038,283.3311 190.1508,283.3311 Z" id="Fill-23" fill="#BC9D55"></path>
                <path d="M144.3464,86.7623 L144.3464,94.3583 C144.3464,101.6063 139.9664,107.4813 134.5634,107.4823 C143.0594,107.4823 149.9464,101.6063 149.9464,94.3593 L149.9464,86.7633" id="Fill-25" fill="#BC9D55"></path>
                <path d="M140.6589,86.7623 L140.6589,90.1633 C140.6589,97.4113 136.2789,103.2873 130.8769,103.2873 C139.3719,103.2873 146.2589,97.4113 146.2589,90.1643 L146.2589,86.7623" id="Fill-27" fill="#BC9D55"></path>
                <path d="M201.3181,264.1988 L96.9281,264.1988 L96.9281,260.1988 L201.3181,260.1988 C221.6761,260.1988 238.2391,242.9678 238.2391,221.7868 C238.2391,200.6058 221.6761,183.3738 201.3181,183.3738 L201.3181,179.3738 C223.8811,179.3738 242.2391,198.3998 242.2391,221.7868 C242.2391,245.1728 223.8811,264.1988 201.3181,264.1988" id="Fill-29" fill="#BC9D55"></path>
                <path d="M21.3259,341.8766 L10.7979,341.8766 L10.7979,354.7056 L21.3259,354.7056 C25.2309,354.7056 28.1599,352.1946 28.1599,348.2906 C28.1599,344.4566 25.2309,341.8766 21.3259,341.8766 Z M0.8969,333.3696 L22.6509,333.3696 C32.7619,333.3696 38.2689,340.2026 38.2689,348.3596 C38.2689,356.4486 32.6909,363.2126 22.6509,363.2126 L10.7979,363.2126 L10.7979,379.8766 L0.8969,379.8766 L0.8969,333.3696 Z" id="Fill-31" fill="#BB9E56"></path>
                <polygon id="Fill-33" fill="#BB9E56" points="57.5808 360.8404 39.6608 333.3694 50.9558 333.3694 62.5308 352.0564 73.9658 333.3694 85.2618 333.3694 67.4808 360.8404 67.4808 379.8764 57.5808 379.8764"></polygon>
                <path d="M89.2312,356.6578 C89.2312,342.3638 99.7592,332.6018 113.1472,332.6018 C121.3752,332.6018 127.0922,336.5768 130.7882,341.8058 L125.9062,344.5258 C123.2562,340.6208 118.4462,337.7618 113.1472,337.7618 C102.9662,337.7618 95.2272,345.5708 95.2272,356.6578 C95.2272,367.6748 102.9662,375.5538 113.1472,375.5538 C118.4462,375.5538 123.2562,372.7638 125.9062,368.7898 L130.8572,371.5098 C126.9532,376.8078 121.3752,380.7138 113.1472,380.7138 C99.7592,380.7138 89.2312,370.9518 89.2312,356.6578" id="Fill-35" fill="#BB9E56"></path>
                <path d="M177.2185,356.6578 C177.2185,345.7808 170.5255,337.7618 160.1365,337.7618 C149.6785,337.7618 143.0545,345.7808 143.0545,356.6578 C143.0545,367.4648 149.6785,375.5538 160.1365,375.5538 C170.5255,375.5538 177.2185,367.4648 177.2185,356.6578 M137.0585,356.6578 C137.0585,342.9218 146.3315,332.6018 160.1365,332.6018 C173.8725,332.6018 183.2165,342.9218 183.2165,356.6578 C183.2165,370.3938 173.8725,380.7138 160.1365,380.7138 C146.3315,380.7138 137.0585,370.3938 137.0585,356.6578" id="Fill-37" fill="#BB9E56"></path>
                <polygon id="Fill-39" fill="#BB9E56" points="225.8835 379.8766 198.7595 342.7826 198.7595 379.8766 192.9725 379.8766 192.9725 333.3696 198.8985 333.3696 225.6735 369.6956 225.6735 333.3696 231.4605 333.3696 231.4605 379.8766"></polygon>
                <polygon id="Fill-41" fill="#BB9E56" points="260.8806 362.8639 249.1666 379.8769 237.3836 379.8769 254.2566 356.0309 238.4296 333.3699 250.2126 333.3699 260.8806 349.2659 271.4096 333.3699 283.3316 333.3699 267.5046 355.9599 284.3786 379.8769 272.5246 379.8769"></polygon>
            </g>
        </g>
    </g>
</svg>